<svg width="100" height="100" viewBox="0 0 100 100" fill="none" xmlns="http://www.w3.org/2000/svg">
<g id="redux">
<g id="redux_2">
<path id="Vector" d="M69.2895 69.3024C72.9798 68.9204 75.7794 65.7392 75.652 61.9212C75.5251 58.1036 72.3434 55.0493 68.5258 55.0493H68.2715C64.3262 55.1767 61.2723 58.4852 61.3997 62.4302C61.527 64.3392 62.2903 65.9935 63.4356 67.1388C59.109 75.6653 52.4918 81.9009 42.5661 87.1184C35.8215 90.6817 28.8227 91.9544 21.8238 91.0638C16.0973 90.3001 11.6434 87.7552 8.84336 83.5552C4.77148 77.3196 4.38984 70.5747 7.82579 63.8302C10.2438 58.9942 14.0609 55.431 16.4789 53.6493C15.9699 51.995 15.2063 49.1954 14.8246 47.1595C-3.62735 60.5216 -1.71837 78.5923 3.88086 87.1184C8.08008 93.4817 16.6063 97.4267 26.0231 97.4267C28.568 97.4267 31.1129 97.172 33.6582 96.536C49.9469 93.3544 62.2907 83.6825 69.2895 69.3024ZM91.6864 53.5224C82.0149 42.1962 67.7626 35.9606 51.4739 35.9606H49.4379C48.2926 33.67 45.8747 32.1427 43.2024 32.1427H42.9477C39.0032 32.27 35.9493 35.5786 36.0762 39.5239C36.2035 43.3415 39.3848 46.3958 43.2024 46.3958H43.4567C46.2563 46.2685 48.6743 44.4868 49.6922 42.0688H51.9829C61.6544 42.0688 70.8165 44.8685 79.0884 50.3407C85.4509 54.5403 90.0321 60.0126 92.577 66.6298C94.7403 71.9747 94.613 77.1923 92.3224 81.6466C88.7595 88.3911 82.7786 92.0817 74.8887 92.0817C69.7985 92.0817 64.963 90.5544 62.4176 89.4091C61.018 90.6817 58.4727 92.7177 56.6911 93.9907C62.1633 96.5356 67.7626 97.9356 73.1071 97.9356C85.3235 97.9356 94.3587 91.1907 97.7946 84.4462C101.485 77.0649 101.23 64.3392 91.6864 53.5224ZM27.041 71.4653C27.1684 75.2833 30.3496 78.3372 34.1672 78.3372H34.4219C38.3668 78.2103 41.4207 74.9013 41.2934 70.9563C41.1664 67.1384 37.9848 64.0845 34.1672 64.0845H33.9129C33.6582 64.0845 33.2762 64.0845 33.0223 64.2114C27.8047 55.5579 25.6414 46.1411 26.4051 35.9603C26.9137 28.3247 29.459 21.7071 33.9129 16.2349C37.6032 11.5263 44.7293 9.23564 49.5653 9.10869C63.054 8.854 68.7801 25.652 69.1622 32.397C70.8165 32.7786 73.6161 33.6696 75.5251 34.306C73.9977 13.6903 61.2723 3.00049 49.0563 3.00049C37.6032 3.00049 27.041 11.2724 22.8414 23.4892C16.9879 39.7782 20.8055 55.431 27.9317 67.7751C27.2957 68.6657 26.9137 70.0657 27.041 71.4657V71.4653Z" fill="#764ABC"/>
</g>
</g>
</svg>
