<svg width="113" height="113" viewBox="0 0 113 113" fill="none" xmlns="http://www.w3.org/2000/svg">
<path d="M74.6972 109.989C63.3691 113.843 51.1099 114.001 39.6862 110.44C28.2626 106.879 18.2644 99.7836 11.1325 90.1755C4.0006 80.5674 0.103225 68.9432 0.00202198 56.9779C-0.0991811 45.0125 3.60101 33.324 10.5694 23.5967C17.5378 13.8693 27.4145 6.6055 38.7762 2.8519C50.138 -0.901693 62.3981 -0.951209 73.7898 2.71049C85.1816 6.37219 95.1166 13.556 102.163 23.2267C109.21 32.8975 113.005 44.5557 113 56.5215L86.9679 56.5116C86.9704 50.059 84.9242 43.7722 81.1242 38.5572C77.3242 33.3422 71.9667 29.4683 65.8236 27.4937C59.6806 25.5191 53.0693 25.5458 46.9424 27.57C40.8155 29.5941 35.4894 33.5112 31.7317 38.7567C27.9739 44.0022 25.9786 50.3053 26.0332 56.7577C26.0877 63.2101 28.1894 69.4785 32.0353 74.6597C35.8813 79.8409 41.2728 83.6673 47.4331 85.5875C53.5933 87.5078 60.2042 87.4226 66.3129 85.3444L74.6972 109.989Z" fill="#3b82f6"/>
<path d="M87 56H113V112H112C98.1929 112 87 100.807 87 87V56Z" fill="#3b82f6"/>
<path d="M72 56C72 64.2843 65.2843 71 57 71C48.7157 71 42 64.2843 42 56C42 47.7157 48.7157 41 57 41C65.2843 41 72 47.7157 72 56Z" fill="#3b82f6"/>
</svg>
